<svg width="219" height="219" viewBox="0 0 219 219" fill="none" xmlns="http://www.w3.org/2000/svg">
<g clip-path="url(#clip0_57_7)">
<path d="M175 219.5C175 210.898 173.306 202.381 170.014 194.434C166.722 186.487 161.898 179.267 155.815 173.185C149.733 167.102 142.513 162.278 134.566 158.986C126.619 155.694 118.102 154 109.5 154C100.898 154 92.3811 155.694 84.4342 158.986C76.4874 162.278 69.2667 167.102 63.1845 173.185C57.1023 179.267 52.2776 186.487 48.9859 194.434C45.6942 202.381 44 210.898 44 219.5L109.5 219.5H175Z" fill="#D9D9D9"/>
<circle cx="109.5" cy="94.5" r="52.5" fill="#D9D9D9"/>
<path d="M148 109C148 117.487 143.944 125.626 136.724 131.627C129.503 137.629 119.711 141 109.5 141C99.2892 141 89.4965 137.629 82.2764 131.627C75.0562 125.626 71 117.487 71 109L109.5 109H148Z" fill="#BBBBBB"/>
</g>
<defs>
<clipPath id="clip0_57_7">
<rect width="219" height="219" rx="50" fill="white"/>
</clipPath>
</defs>
</svg>
