<svg width="219" height="219" viewBox="0 0 219 219" fill="none" xmlns="http://www.w3.org/2000/svg">
<rect width="219" height="219" rx="50" fill="url(#paint0_linear_53_60)"/>
<g filter="url(#filter0_di_53_60)">
<path d="M112.253 116.031C112.483 111.725 114.603 107.924 117.772 105.239C121.11 102.465 125.331 100.978 129.676 100.998C134.236 100.998 138.432 102.615 141.56 105.239C144.733 107.928 146.829 111.725 147.079 116.031C147.309 120.437 145.547 124.557 142.419 127.596C138.997 130.874 134.421 132.676 129.676 132.639C124.907 132.676 120.336 130.878 116.889 127.596C113.781 124.553 111.999 120.437 112.249 116.031H112.253ZM84.5183 124.722C84.5344 126.403 85.0826 129.676 85.8768 132.236C87.6223 137.739 90.5409 142.798 94.4432 147.039C98.6236 151.639 103.727 155.311 109.411 157.81C115.631 160.54 122.327 161.926 129.088 161.886C135.864 161.906 142.564 160.499 148.76 157.754C154.448 155.235 159.532 151.534 163.728 146.938C167.61 142.677 170.529 137.598 172.275 132.091C173.952 126.758 174.415 121.11 173.617 115.567C172.859 110.258 171.009 105.17 168.155 100.639C165.51 96.3944 162.152 92.6776 158.201 89.6582L117.808 58.6216C115.164 56.5858 110.713 56.606 107.815 58.6216C104.876 60.6816 104.537 64.0839 107.138 66.2447L123.94 79.9146L72.6462 79.9791C68.4013 79.9791 64.3539 82.7486 63.5316 86.28C62.7132 89.8476 65.5673 92.8106 69.9775 92.8267L95.9509 92.7905L49.4262 128.479C45.0604 131.817 43.6535 137.4 46.4068 140.911C49.1964 144.503 55.1425 144.503 59.5688 140.932L84.8488 120.247C84.8488 120.247 84.4739 123.041 84.5142 124.718L84.5183 124.722ZM149.494 134.062C144.269 139.38 136.981 142.399 129.092 142.399C121.195 142.419 113.886 139.436 108.682 134.147C106.227 131.668 104.312 128.685 103.114 125.411C100.873 119.199 101.437 112.29 104.63 106.493C106.206 103.683 108.303 101.159 110.822 99.1235C115.885 95.0117 122.331 92.7864 129.092 92.7663C135.828 92.7663 142.278 94.9714 147.333 99.0832C149.917 101.184 152.013 103.663 153.525 106.436C155.101 109.246 156.069 112.374 156.343 115.611C156.637 118.905 156.198 122.223 155.065 125.331C153.844 128.608 151.953 131.587 149.498 134.066L149.494 134.062Z" fill="white"/>
</g>
<defs>
<filter id="filter0_di_53_60" x="40.9932" y="57.1023" width="137.004" height="112.785" filterUnits="userSpaceOnUse" color-interpolation-filters="sRGB">
<feFlood flood-opacity="0" result="BackgroundImageFix"/>
<feColorMatrix in="SourceAlpha" type="matrix" values="0 0 0 0 0 0 0 0 0 0 0 0 0 0 0 0 0 0 127 0" result="hardAlpha"/>
<feOffset dy="4"/>
<feGaussianBlur stdDeviation="2"/>
<feComposite in2="hardAlpha" operator="out"/>
<feColorMatrix type="matrix" values="0 0 0 0 0 0 0 0 0 0 0 0 0 0 0 0 0 0 0.25 0"/>
<feBlend mode="normal" in2="BackgroundImageFix" result="effect1_dropShadow_53_60"/>
<feBlend mode="normal" in="SourceGraphic" in2="effect1_dropShadow_53_60" result="shape"/>
<feColorMatrix in="SourceAlpha" type="matrix" values="0 0 0 0 0 0 0 0 0 0 0 0 0 0 0 0 0 0 127 0" result="hardAlpha"/>
<feOffset/>
<feGaussianBlur stdDeviation="2.5"/>
<feComposite in2="hardAlpha" operator="arithmetic" k2="-1" k3="1"/>
<feColorMatrix type="matrix" values="0 0 0 0 0 0 0 0 0 0 0 0 0 0 0 0 0 0 0.25 0"/>
<feBlend mode="normal" in2="shape" result="effect2_innerShadow_53_60"/>
</filter>
<linearGradient id="paint0_linear_53_60" x1="109.5" y1="0" x2="109.5" y2="219" gradientUnits="userSpaceOnUse">
<stop stop-color="#4A4A4A"/>
<stop offset="1" stop-color="#212121"/>
</linearGradient>
</defs>
</svg>
