<svg width="219" height="219" viewBox="0 0 219 219" fill="none" xmlns="http://www.w3.org/2000/svg">
<rect width="219" height="219" rx="50" fill="url(#paint0_linear_15_9)"/>
<mask id="mask0_15_9" style="mask-type:alpha" maskUnits="userSpaceOnUse" x="6" y="5" width="208" height="208">
<rect x="6.14014" y="5.14014" width="207.86" height="207.86" fill="#D9D9D9"/>
</mask>
<g mask="url(#mask0_15_9)">
<path d="M110.07 195.678C98.2337 195.678 87.0468 193.405 76.5095 188.858C65.9721 184.311 56.77 178.104 48.9031 170.237C41.0362 162.37 34.8293 153.168 30.2823 142.631C25.7354 132.093 23.4619 120.906 23.4619 109.07C23.4619 97.0891 25.7354 85.8661 30.2823 75.401C34.8293 64.9358 41.0362 55.7698 48.9031 47.9029C56.77 40.0359 65.9721 33.829 76.5095 29.2821C87.0468 24.7351 98.2337 22.4617 110.07 22.4617C122.051 22.4617 133.274 24.7351 143.739 29.2821C154.204 33.829 163.37 40.0359 171.237 47.9029C179.104 55.7698 185.311 64.9358 189.858 75.401C194.405 85.8661 196.678 97.0891 196.678 109.07C196.678 120.906 194.405 132.093 189.858 142.631C185.311 153.168 179.104 162.37 171.237 170.237C163.37 178.104 154.204 184.311 143.739 188.858C133.274 193.405 122.051 195.678 110.07 195.678ZM110.07 177.924C113.823 172.727 117.071 167.314 119.814 161.684C122.556 156.055 124.794 150.065 126.526 143.713H93.6146C95.3468 150.065 97.5842 156.055 100.327 161.684C103.069 167.314 106.317 172.727 110.07 177.924ZM87.552 174.459C84.9538 169.696 82.6803 164.752 80.7316 159.628C78.783 154.503 77.159 149.198 75.8599 143.713H50.3105C54.4965 150.931 59.7291 157.21 66.0082 162.551C72.2873 167.891 79.4686 171.861 87.552 174.459ZM132.588 174.459C140.672 171.861 147.853 167.891 154.132 162.551C160.411 157.21 165.644 150.931 169.83 143.713H144.28C142.981 149.198 141.357 154.503 139.409 159.628C137.46 164.752 135.187 169.696 132.588 174.459ZM42.9488 126.392H72.3956C71.9625 123.505 71.6378 120.654 71.4212 117.839C71.2047 115.024 71.0965 112.101 71.0965 109.07C71.0965 106.039 71.2047 103.116 71.4212 100.301C71.6378 97.4861 71.9625 94.6352 72.3956 91.7483H42.9488C42.227 94.6352 41.6857 97.4861 41.3249 100.301C40.964 103.116 40.7836 106.039 40.7836 109.07C40.7836 112.101 40.964 115.024 41.3249 117.839C41.6857 120.654 42.227 123.505 42.9488 126.392ZM89.7172 126.392H130.423C130.856 123.505 131.181 120.654 131.397 117.839C131.614 115.024 131.722 112.101 131.722 109.07C131.722 106.039 131.614 103.116 131.397 100.301C131.181 97.4861 130.856 94.6352 130.423 91.7483H89.7172C89.2842 94.6352 88.9594 97.4861 88.7429 100.301C88.5264 103.116 88.4181 106.039 88.4181 109.07C88.4181 112.101 88.5264 115.024 88.7429 117.839C88.9594 120.654 89.2842 123.505 89.7172 126.392ZM147.745 126.392H177.192C177.913 123.505 178.455 120.654 178.816 117.839C179.176 115.024 179.357 112.101 179.357 109.07C179.357 106.039 179.176 103.116 178.816 100.301C178.455 97.4861 177.913 94.6352 177.192 91.7483H147.745C148.178 94.6352 148.503 97.4861 148.719 100.301C148.936 103.116 149.044 106.039 149.044 109.07C149.044 112.101 148.936 115.024 148.719 117.839C148.503 120.654 148.178 123.505 147.745 126.392ZM144.28 74.4266H169.83C165.644 67.2093 160.411 60.9302 154.132 55.5893C147.853 50.2485 140.672 46.2789 132.588 43.6807C135.187 48.4442 137.46 53.388 139.409 58.5124C141.357 63.6367 142.981 68.9414 144.28 74.4266ZM93.6146 74.4266H126.526C124.794 68.0754 122.556 62.085 119.814 56.4554C117.071 50.8259 113.823 45.4129 110.07 40.2164C106.317 45.4129 103.069 50.8259 100.327 56.4554C97.5842 62.085 95.3468 68.0754 93.6146 74.4266ZM50.3105 74.4266H75.8599C77.159 68.9414 78.783 63.6367 80.7316 58.5124C82.6803 53.388 84.9538 48.4442 87.552 43.6807C79.4686 46.2789 72.2873 50.2485 66.0082 55.5893C59.7291 60.9302 54.4965 67.2093 50.3105 74.4266Z" fill="#96B4FF"/>
</g>
<defs>
<linearGradient id="paint0_linear_15_9" x1="109.5" y1="0" x2="109.5" y2="219" gradientUnits="userSpaceOnUse">
<stop stop-color="white"/>
<stop offset="1" stop-color="#ECF4FF"/>
</linearGradient>
</defs>
</svg>
