<svg width="219" height="219" viewBox="0 0 219 219" fill="none" xmlns="http://www.w3.org/2000/svg">
<rect width="219" height="219" rx="50" fill="url(#paint0_linear_13_127)"/>
<path d="M39 45.5C86.01 75.4 133.01 75.4 180.01 45.5C133.01 75.22 86.01 75.22 39 45.5Z" fill="black"/>
<path d="M39 45.5C86.01 75.4 133.01 75.4 180.01 45.5C133.01 73.1133 86.0067 73.1133 39 45.5Z" fill="black"/>
<path d="M39 45.5C86.01 75.4 133.01 75.4 180.01 45.5C133.01 75.22 86.01 75.22 39 45.5Z" fill="black"/>
<path d="M39 45.5C86.01 75.4 133.01 75.4 180.01 45.5C133.01 73.1133 86.0067 73.1133 39 45.5Z" fill="black"/>
<path d="M39 45.5C86.01 75.4 133.01 75.4 180.01 45.5M39 45.5C86.01 75.22 133.01 75.22 180.01 45.5M39 45.5C86.0067 73.1133 133.01 73.1133 180.01 45.5" stroke="#003A6A" stroke-width="5" stroke-linecap="round"/>
<defs>
<linearGradient id="paint0_linear_13_127" x1="109.5" y1="0" x2="109.5" y2="219" gradientUnits="userSpaceOnUse">
<stop stop-color="#B6D4FC"/>
<stop offset="1" stop-color="#869DBB"/>
</linearGradient>
</defs>
</svg>
