<svg width="219" height="219" viewBox="0 0 219 219" fill="none" xmlns="http://www.w3.org/2000/svg">
<rect width="219" height="219" rx="50" fill="url(#paint0_linear_53_94)"/>
<g filter="url(#filter0_di_53_94)">
<path fill-rule="evenodd" clip-rule="evenodd" d="M120.454 47.9439C118.173 47 115.282 47 109.5 47C103.718 47 100.827 47 98.5463 47.9439C95.5055 49.2024 93.0897 51.6164 91.8302 54.6547C91.2553 56.0417 91.0303 57.6547 90.9422 60.0075C90.8128 63.4652 89.0382 66.6657 86.0394 68.3958C83.0406 70.1258 79.3795 70.0611 76.3181 68.4443C74.2348 67.3441 72.7243 66.7322 71.2347 66.5363C67.9717 66.107 64.6716 66.9906 62.0605 68.9926C60.1022 70.4942 58.6566 72.996 55.7656 77.9996C52.8745 83.0032 51.429 85.505 51.1068 87.9504C50.6772 91.211 51.5615 94.5085 53.5651 97.1177C54.4796 98.3087 55.7648 99.3094 57.7595 100.562C60.6919 102.403 62.5788 105.54 62.5786 109C62.5784 112.46 60.6916 115.596 57.7595 117.437C55.7645 118.69 54.479 119.691 53.5644 120.882C51.5608 123.491 50.6766 126.788 51.1062 130.049C51.4284 132.494 52.874 134.997 55.765 140C58.656 145.003 60.1016 147.506 62.0599 149.007C64.671 151.009 67.9711 151.892 71.2341 151.463C72.7237 151.267 74.234 150.655 76.3171 149.555C79.3787 147.938 83.0401 147.874 86.0391 149.604C89.0381 151.334 90.8128 154.535 90.9422 157.993C91.0303 160.345 91.2553 161.959 91.8302 163.345C93.0897 166.383 95.5055 168.798 98.5463 170.056C100.827 171 103.718 171 109.5 171C115.282 171 118.173 171 120.454 170.056C123.494 168.798 125.91 166.383 127.169 163.345C127.745 161.959 127.97 160.345 128.058 157.992C128.187 154.535 129.961 151.334 132.96 149.604C135.959 147.873 139.621 147.938 142.682 149.555C144.766 150.655 146.275 151.267 147.765 151.463C151.028 151.892 154.328 151.009 156.939 149.007C158.898 147.505 160.343 145.003 163.234 139.999C166.125 134.996 167.571 132.494 167.893 130.049C168.323 126.788 167.438 123.491 165.435 120.882C164.52 119.691 163.235 118.689 161.24 117.437C158.308 115.596 156.421 112.46 156.421 108.999C156.421 105.539 158.308 102.404 161.24 100.563C163.236 99.31 164.521 98.3093 165.436 97.1177C167.439 94.5089 168.323 91.2114 167.894 87.9508C167.571 85.5054 166.126 83.0036 163.235 78C160.344 72.9964 158.899 70.4946 156.94 68.9931C154.329 66.991 151.029 66.1075 147.766 66.5368C146.276 66.7327 144.766 67.3444 142.683 68.4446C139.621 70.0615 135.96 70.1261 132.961 68.396C129.962 66.6658 128.187 63.4651 128.057 60.0072C127.969 57.6546 127.745 56.0416 127.169 54.6547C125.91 51.6164 123.494 49.2024 120.454 47.9439ZM109.5 127.6C119.781 127.6 128.114 119.273 128.114 109C128.114 98.7272 119.781 90.4 109.5 90.4C99.2193 90.4 90.8856 98.7272 90.8856 109C90.8856 119.273 99.2193 127.6 109.5 127.6Z" fill="white"/>
</g>
<defs>
<filter id="filter0_di_53_94" x="47" y="47" width="125" height="132" filterUnits="userSpaceOnUse" color-interpolation-filters="sRGB">
<feFlood flood-opacity="0" result="BackgroundImageFix"/>
<feColorMatrix in="SourceAlpha" type="matrix" values="0 0 0 0 0 0 0 0 0 0 0 0 0 0 0 0 0 0 127 0" result="hardAlpha"/>
<feOffset dy="4"/>
<feGaussianBlur stdDeviation="2"/>
<feComposite in2="hardAlpha" operator="out"/>
<feColorMatrix type="matrix" values="0 0 0 0 0 0 0 0 0 0 0 0 0 0 0 0 0 0 0.25 0"/>
<feBlend mode="normal" in2="BackgroundImageFix" result="effect1_dropShadow_53_94"/>
<feBlend mode="normal" in="SourceGraphic" in2="effect1_dropShadow_53_94" result="shape"/>
<feColorMatrix in="SourceAlpha" type="matrix" values="0 0 0 0 0 0 0 0 0 0 0 0 0 0 0 0 0 0 127 0" result="hardAlpha"/>
<feOffset/>
<feGaussianBlur stdDeviation="2"/>
<feComposite in2="hardAlpha" operator="arithmetic" k2="-1" k3="1"/>
<feColorMatrix type="matrix" values="0 0 0 0 0 0 0 0 0 0 0 0 0 0 0 0 0 0 0.25 0"/>
<feBlend mode="normal" in2="shape" result="effect2_innerShadow_53_94"/>
</filter>
<linearGradient id="paint0_linear_53_94" x1="109.5" y1="0" x2="109.5" y2="219" gradientUnits="userSpaceOnUse">
<stop stop-color="#262626"/>
<stop offset="1" stop-color="#0D0D0D"/>
</linearGradient>
</defs>
</svg>
