<svg width="219" height="219" viewBox="0 0 219 219" fill="none" xmlns="http://www.w3.org/2000/svg">
<rect width="219" height="219" rx="50" fill="url(#paint0_linear_53_67)"/>
<g filter="url(#filter0_di_53_67)">
<path d="M116.643 164.154C115.499 162.096 108.758 149.703 105.174 143.068C102.271 137.696 98.9585 131.608 97.2992 128.597C96.9079 127.89 96.5298 127.328 96.4572 127.355C96.0027 127.515 96.5958 129.724 99.8639 140.044C101.486 145.168 102.517 148.594 102.902 150.145C103.133 151.078 103.17 151.506 103.168 153.168C103.164 155.063 102.909 157.195 102.647 157.518C102.59 157.612 102.429 157.631 102.288 157.612C99.083 157.141 92.2996 155.736 73.587 151.665C72.6064 151.449 72.1738 151.307 72.136 151.185C72.0248 150.817 61.2201 99.9185 58.2522 85.7832C56.9794 79.7206 54.2397 66.5103 54.1189 65.8531C54.0529 65.5137 54.0717 65.4948 54.4753 65.4288C55.0664 65.3345 64.6858 64.0994 75.9537 62.67C81.195 62.01 87.0753 61.2586 89.0211 61.0106C90.9669 60.7655 99.4922 59.6859 107.966 58.6176C122.897 56.7338 141.332 54.3927 144.829 53.9363C152.946 52.8756 156.349 52.4532 156.978 52.4287H157.716L158.265 56.4236C158.568 58.6205 159.53 65.5787 160.404 71.8874C163.704 95.6917 165.405 108.652 165.835 113.263L165.91 114.064L162.959 116.352C159.227 119.243 155.157 122.359 152.865 124.076L151.086 125.411H150.126C148.091 125.41 142.426 125.099 132.389 124.433C125.914 124.009 122.627 123.895 122.553 124.112C122.478 124.339 129.002 130.065 150.878 148.965L157.839 154.98L159.139 157.571C160.627 160.54 161.05 161.563 160.866 161.747C160.699 161.917 127.844 164.911 120.692 165.411C117.029 165.666 117.554 165.826 116.642 164.187L116.643 164.154ZM95.9132 107.293C100.496 106.453 112.342 104.055 115.975 103.231L117.589 102.863L117.636 102.448C117.747 101.553 117.415 93.4505 117.147 90.5088C117.005 88.9531 116.939 88.6259 116.77 88.625C116.694 88.6241 115.403 88.4459 113.897 88.229C112.391 88.0121 109.36 87.5973 107.164 87.305C104.967 87.0127 101.295 86.5318 99.0036 86.2264C91.967 85.2929 88.7498 84.9111 88.664 84.9969C88.5056 85.1572 88.4038 89.0804 88.3972 95.307L88.3903 101.597L90.2028 104.004C92.6679 107.278 93.0179 107.677 93.4203 107.677C93.5976 107.677 94.7181 107.498 95.9093 107.281L95.9132 107.293Z" fill="white"/>
</g>
<defs>
<filter id="filter0_di_53_67" x="50.0898" y="52.4287" width="119.82" height="121.143" filterUnits="userSpaceOnUse" color-interpolation-filters="sRGB">
<feFlood flood-opacity="0" result="BackgroundImageFix"/>
<feColorMatrix in="SourceAlpha" type="matrix" values="0 0 0 0 0 0 0 0 0 0 0 0 0 0 0 0 0 0 127 0" result="hardAlpha"/>
<feOffset dy="4"/>
<feGaussianBlur stdDeviation="2"/>
<feComposite in2="hardAlpha" operator="out"/>
<feColorMatrix type="matrix" values="0 0 0 0 0 0 0 0 0 0 0 0 0 0 0 0 0 0 0.25 0"/>
<feBlend mode="normal" in2="BackgroundImageFix" result="effect1_dropShadow_53_67"/>
<feBlend mode="normal" in="SourceGraphic" in2="effect1_dropShadow_53_67" result="shape"/>
<feColorMatrix in="SourceAlpha" type="matrix" values="0 0 0 0 0 0 0 0 0 0 0 0 0 0 0 0 0 0 127 0" result="hardAlpha"/>
<feOffset/>
<feGaussianBlur stdDeviation="2"/>
<feComposite in2="hardAlpha" operator="arithmetic" k2="-1" k3="1"/>
<feColorMatrix type="matrix" values="0 0 0 0 0 0 0 0 0 0 0 0 0 0 0 0 0 0 0.25 0"/>
<feBlend mode="normal" in2="shape" result="effect2_innerShadow_53_67"/>
</filter>
<linearGradient id="paint0_linear_53_67" x1="109.5" y1="0" x2="109.5" y2="219" gradientUnits="userSpaceOnUse">
<stop stop-color="#A5A5A5"/>
<stop offset="1" stop-color="#626262"/>
</linearGradient>
</defs>
</svg>
