<svg width="219" height="219" viewBox="0 0 219 219" fill="none" xmlns="http://www.w3.org/2000/svg">
<rect width="219" height="219" rx="50" fill="url(#paint0_linear_53_98)"/>
<g filter="url(#filter0_di_53_98)">
<path fill-rule="evenodd" clip-rule="evenodd" d="M176.307 148.373C175.41 148 174.273 148 172 148C169.727 148 168.59 148 167.693 148.373C166.498 148.87 165.548 149.824 165.053 151.025C164.827 151.573 164.738 152.21 164.704 153.14C164.653 154.506 163.955 155.771 162.776 156.455C161.597 157.138 160.158 157.113 158.954 156.474C158.135 156.039 157.541 155.797 156.956 155.72C155.673 155.55 154.375 155.9 153.349 156.691C152.579 157.284 152.01 158.273 150.874 160.25C149.737 162.227 149.169 163.216 149.042 164.182C148.873 165.47 149.221 166.774 150.008 167.805C150.368 168.275 150.873 168.671 151.658 169.166C152.811 169.893 153.552 171.133 153.552 172.5C153.552 173.867 152.81 175.107 151.658 175.834C150.873 176.329 150.368 176.725 150.008 177.195C149.221 178.226 148.873 179.529 149.042 180.818C149.168 181.784 149.737 182.773 150.873 184.75C152.01 186.727 152.578 187.716 153.348 188.309C154.375 189.1 155.672 189.449 156.955 189.28C157.541 189.202 158.135 188.961 158.954 188.526C160.157 187.887 161.597 187.862 162.776 188.545C163.955 189.229 164.653 190.494 164.704 191.86C164.738 192.79 164.827 193.427 165.053 193.975C165.548 195.176 166.498 196.13 167.693 196.627C168.59 197 169.727 197 172 197C174.273 197 175.41 197 176.307 196.627C177.502 196.13 178.452 195.176 178.947 193.975C179.173 193.427 179.262 192.79 179.296 191.86C179.347 190.494 180.045 189.229 181.224 188.545C182.403 187.861 183.842 187.887 185.046 188.526C185.865 188.961 186.459 189.202 187.044 189.28C188.327 189.449 189.625 189.1 190.651 188.309C191.421 187.716 191.99 186.727 193.126 184.75C194.263 182.773 194.831 181.784 194.958 180.818C195.127 179.529 194.779 178.226 193.992 177.195C193.632 176.725 193.127 176.329 192.342 175.834C191.189 175.107 190.448 173.867 190.448 172.5C190.448 171.132 191.189 169.893 192.342 169.166C193.127 168.671 193.632 168.275 193.992 167.805C194.779 166.774 195.127 165.471 194.958 164.182C194.831 163.216 194.263 162.227 193.127 160.25C191.99 158.273 191.422 157.284 190.652 156.691C189.625 155.9 188.328 155.551 187.045 155.72C186.459 155.798 185.865 156.039 185.046 156.474C183.843 157.113 182.403 157.139 181.224 156.455C180.045 155.771 179.347 154.506 179.296 153.14C179.261 152.21 179.173 151.573 178.947 151.025C178.452 149.824 177.502 148.87 176.307 148.373ZM172 179.85C176.042 179.85 179.318 176.559 179.318 172.5C179.318 168.441 176.042 165.15 172 165.15C167.958 165.15 164.682 168.441 164.682 172.5C164.682 176.559 167.958 179.85 172 179.85Z" fill="white"/>
</g>
<g filter="url(#filter1_di_53_98)">
<path d="M26 136.082C26 143.251 28.53 149.363 33.59 154.418C38.65 159.473 44.768 162 51.944 162H112.25C119.426 162 125.544 159.473 130.604 154.418C135.664 149.363 138.194 143.251 138.194 136.082V75.6983C138.194 68.6214 135.664 62.5554 130.604 57.5005C125.544 52.4456 119.426 49.9181 112.25 49.9181H51.944C44.768 49.9181 38.65 52.4456 33.59 57.5005C28.53 62.5554 26 68.6214 26 75.6983V136.082ZM43.25 136.082V101.616H120.944V136.082C120.944 138.472 120.07 140.494 118.322 142.148C116.574 143.802 114.55 144.629 112.25 144.629H51.944C49.552 144.629 47.482 143.802 45.734 142.148C43.986 140.494 43.158 138.472 43.25 136.082ZM43.25 92.9311V75.6983C43.25 73.3087 44.078 71.2867 45.734 69.6324C47.39 67.978 49.46 67.1508 51.944 67.1508H112.25C114.642 67.1508 116.666 67.978 118.322 69.6324C119.978 71.2867 120.852 73.3087 120.944 75.6983V92.9311H43.25ZM51.944 84.3836H60.5V75.6983H51.944V84.3836ZM53.462 41.2328H120.944C128.028 41.2328 134.1 43.7602 139.16 48.8152C144.22 53.8701 146.75 59.982 146.75 67.1508V134.565C151.81 132.727 155.95 129.602 159.17 125.191C162.39 120.779 164 115.77 164 110.164V49.9181C164 42.7492 161.47 36.6374 156.41 31.5824C151.35 26.5275 145.278 24 138.194 24H77.75C72.23 24 67.262 25.6084 62.846 28.8252C58.43 32.042 55.302 36.1778 53.462 41.2328ZM69.194 84.3836H77.75V75.6983H69.194V84.3836ZM86.444 84.3836H112.25V75.6983H86.444V84.3836Z" fill="white"/>
</g>
<defs>
<filter id="filter0_di_53_98" x="145" y="148" width="54" height="57" filterUnits="userSpaceOnUse" color-interpolation-filters="sRGB">
<feFlood flood-opacity="0" result="BackgroundImageFix"/>
<feColorMatrix in="SourceAlpha" type="matrix" values="0 0 0 0 0 0 0 0 0 0 0 0 0 0 0 0 0 0 127 0" result="hardAlpha"/>
<feOffset dy="4"/>
<feGaussianBlur stdDeviation="2"/>
<feComposite in2="hardAlpha" operator="out"/>
<feColorMatrix type="matrix" values="0 0 0 0 0 0 0 0 0 0 0 0 0 0 0 0 0 0 0.25 0"/>
<feBlend mode="normal" in2="BackgroundImageFix" result="effect1_dropShadow_53_98"/>
<feBlend mode="normal" in="SourceGraphic" in2="effect1_dropShadow_53_98" result="shape"/>
<feColorMatrix in="SourceAlpha" type="matrix" values="0 0 0 0 0 0 0 0 0 0 0 0 0 0 0 0 0 0 127 0" result="hardAlpha"/>
<feOffset/>
<feGaussianBlur stdDeviation="2"/>
<feComposite in2="hardAlpha" operator="arithmetic" k2="-1" k3="1"/>
<feColorMatrix type="matrix" values="0 0 0 0 0 0 0 0 0 0 0 0 0 0 0 0 0 0 0.25 0"/>
<feBlend mode="normal" in2="shape" result="effect2_innerShadow_53_98"/>
</filter>
<filter id="filter1_di_53_98" x="22" y="24" width="146" height="146" filterUnits="userSpaceOnUse" color-interpolation-filters="sRGB">
<feFlood flood-opacity="0" result="BackgroundImageFix"/>
<feColorMatrix in="SourceAlpha" type="matrix" values="0 0 0 0 0 0 0 0 0 0 0 0 0 0 0 0 0 0 127 0" result="hardAlpha"/>
<feOffset dy="4"/>
<feGaussianBlur stdDeviation="2"/>
<feComposite in2="hardAlpha" operator="out"/>
<feColorMatrix type="matrix" values="0 0 0 0 0 0 0 0 0 0 0 0 0 0 0 0 0 0 0.25 0"/>
<feBlend mode="normal" in2="BackgroundImageFix" result="effect1_dropShadow_53_98"/>
<feBlend mode="normal" in="SourceGraphic" in2="effect1_dropShadow_53_98" result="shape"/>
<feColorMatrix in="SourceAlpha" type="matrix" values="0 0 0 0 0 0 0 0 0 0 0 0 0 0 0 0 0 0 127 0" result="hardAlpha"/>
<feOffset/>
<feGaussianBlur stdDeviation="2"/>
<feComposite in2="hardAlpha" operator="arithmetic" k2="-1" k3="1"/>
<feColorMatrix type="matrix" values="0 0 0 0 0 0 0 0 0 0 0 0 0 0 0 0 0 0 0.25 0"/>
<feBlend mode="normal" in2="shape" result="effect2_innerShadow_53_98"/>
</filter>
<linearGradient id="paint0_linear_53_98" x1="109.5" y1="0" x2="109.5" y2="219" gradientUnits="userSpaceOnUse">
<stop stop-color="#262626"/>
<stop offset="1" stop-color="#0D0D0D"/>
</linearGradient>
</defs>
</svg>
