<svg width="219" height="143" viewBox="0 0 219 143" fill="none" xmlns="http://www.w3.org/2000/svg">
<g clip-path="url(#clip0_57_17)">
<rect width="219" height="143" rx="30" fill="url(#paint0_linear_57_17)"/>
<path fill-rule="evenodd" clip-rule="evenodd" d="M9.16863 148.252C8.70556 149.018 9.2509 150 10.1388 150H105.862C106.683 150 107.233 149.147 106.903 148.388L77.4254 80.6863C77.0201 79.7542 75.7034 79.7767 75.3293 80.7223L62.5783 112.937C62.4276 113.318 62.489 113.751 62.7397 114.074L72.2774 126.341C74.2172 128.836 73.7886 132.448 71.3194 134.408C68.8503 136.369 65.2765 135.936 63.3367 133.44L38.9161 102.031C38.4264 101.401 37.4652 101.458 37.0518 102.142L9.16863 148.252Z" fill="#1C274C"/>
<path d="M106.004 153H9.99777V147.311H106.004V153ZM80.0936 80.3785L109.657 147.414L104.438 149.705L74.8744 82.6696L80.0936 80.3785ZM59.9456 112.401L72.7338 80.5033L78.0283 82.6162L65.2395 114.514L59.9456 112.401ZM64.9966 112.826L74.5625 124.972L70.0789 128.487L60.513 116.34L64.9966 112.826ZM74.5625 124.972C77.4808 128.678 76.8354 134.043 73.121 136.954L69.5982 132.481C70.8361 131.511 71.0517 129.722 70.0789 128.487L74.5625 124.972ZM73.121 136.954C69.4066 139.866 64.0295 139.222 61.1111 135.516L65.5947 132.002C66.5675 133.237 68.3603 133.452 69.5982 132.481L73.121 136.954ZM61.1111 135.516L36.6185 104.416L41.1022 100.901L65.5947 132.002L61.1111 135.516ZM6.59188 146.941L34.5577 101.285L39.4233 104.251L11.4575 149.907L6.59188 146.941ZM65.2395 114.514C65.4664 113.948 65.3741 113.305 64.9966 112.826L60.513 116.34C59.6326 115.223 59.4165 113.721 59.9456 112.401L65.2395 114.514ZM36.6185 104.416C37.3553 105.352 38.8014 105.266 39.4233 104.251L34.5577 101.285C36.0087 98.9159 39.383 98.718 41.1022 100.901L36.6185 104.416ZM74.8744 82.6696C75.4851 84.0542 77.4655 84.0206 78.0283 82.6162L72.7338 80.5033C74.0482 77.2263 78.6686 77.148 80.0936 80.3785L74.8744 82.6696ZM9.99777 153C6.8807 153 4.96649 149.595 6.59188 146.941L11.4575 149.907C12.154 148.77 11.3337 147.311 9.99777 147.311V153ZM106.004 147.311C104.769 147.311 103.941 148.577 104.438 149.705L109.657 147.414C110.818 150.046 108.886 153 106.004 153V147.311Z" fill="#1C274C"/>
<path d="M235 12C235 27.4639 222.464 40 207 40C191.536 40 179 27.4639 179 12C179 -3.46398 191.536 -16 207 -16C222.464 -16 235 -3.46398 235 12Z" fill="#1C274C"/>
<path fill-rule="evenodd" clip-rule="evenodd" d="M207 -38C208.927 -38 210.488 -36.4382 210.488 -34.5116V-29.8605C210.488 -27.9339 208.927 -26.3721 207 -26.3721C205.073 -26.3721 203.512 -27.9339 203.512 -29.8605V-34.5116C203.512 -36.4382 205.073 -38 207 -38ZM157 12C157 10.0735 158.562 8.51163 160.488 8.51163H165.14C167.066 8.51163 168.628 10.0735 168.628 12C168.628 13.9265 167.066 15.4884 165.14 15.4884H160.488C158.562 15.4884 157 13.9265 157 12ZM245.372 12C245.372 10.0735 246.934 8.51163 248.86 8.51163H253.512C255.438 8.51163 257 10.0735 257 12C257 13.9265 255.438 15.4884 253.512 15.4884H248.86C246.934 15.4884 245.372 13.9265 245.372 12ZM207 50.3721C208.927 50.3721 210.488 51.934 210.488 53.8605V58.5116C210.488 60.4381 208.927 62 207 62C205.073 62 203.512 60.4381 203.512 58.5116V53.8605C203.512 51.934 205.073 50.3721 207 50.3721Z" fill="#1C274C"/>
<g opacity="0.5">
<path d="M178.351 40.3975C179.709 41.7564 179.709 43.9593 178.351 45.3182L176.528 47.1411C175.169 48.5 172.966 48.5 171.607 47.1411C170.248 45.7821 170.248 43.5788 171.607 42.2199L173.43 40.3975C174.789 39.0386 176.992 39.0386 178.351 40.3975Z" fill="#1C274C"/>
</g>
</g>
<defs>
<linearGradient id="paint0_linear_57_17" x1="109.5" y1="0" x2="109.5" y2="143" gradientUnits="userSpaceOnUse">
<stop stop-color="#9AC090"/>
<stop offset="1" stop-color="#536B47"/>
</linearGradient>
<clipPath id="clip0_57_17">
<rect width="219" height="143" rx="30" fill="white"/>
</clipPath>
</defs>
</svg>
